<?xml version="1.0" encoding="utf-8"?>
<!-- Generator: Adobe Illustrator 17.1.0, SVG Export Plug-In . SVG Version: 6.00 Build 0)  -->
<!DOCTYPE svg PUBLIC "-//W3C//DTD SVG 1.1//EN" "http://www.w3.org/Graphics/SVG/1.1/DTD/svg11.dtd">
<svg version="1.1" xmlns="http://www.w3.org/2000/svg" xmlns:xlink="http://www.w3.org/1999/xlink" x="0px" y="0px"
	 viewBox="0 0 1712 1063" style="enable-background:new 0 0 1712 1063;" width="1712" height="1063" xml:space="preserve">
<style type="text/css">
	.st0{fill:#B89A8F;}
	.st1{fill:#A55385;}
	.st2{fill:#64999F;}
	.st16{fill:#fff;}	
	.st3{fill:#A7AC82;stroke:#000;stroke-width:2;stroke-linejoin:round;}
	.st4{fill:#A7AC82;stroke:#000;stroke-width:2;}
	.st5{fill:#9FAB01;stroke:#000;stroke-width:4;}
	.st6{fill:#fff;stroke:#000;stroke-width:4;}
	.st19{fill:#f00;stroke:#000;stroke-width:0.5;}
	.st7{fill:none;stroke:#000;stroke-width:4;stroke-linecap:round;}
	
	.st8{filter:url(#AI_GaussianBlur_4);}
	.st9{opacity:0.1;}
	.st10{fill:none;stroke:#000;stroke-width:4;}
	.st11{fill:none;stroke:#000;stroke-width:4;stroke-linecap:round;stroke-dasharray:1.5,8;}
	.st12{fill:none;}
	.st13{opacity:0.3;}
	.st14{font-family:Liberation Sans,Arial;}
	.st15{font-size:84px;}
	.st17{font-size:60px;}
	.st18{font-size:48px;}

</style>
<filter  id="AI_GaussianBlur_4">
	<feGaussianBlur  stdDeviation="4"></feGaussianBlur>
</filter>
<g id="colour">
	<path class="st0" d="M1270.9,898.2c13.6-23.8,17.5-49.4,14.8-60.2c2-6.4-5.3-14.4-9.3-19.9c-4.5-6.3,9.4-21.9,7.1-23.8
		c-7.1-1,23.1-5.9,50.6-51.7c14.1-23.6,60.8-77.7,58.7-79c-5.8-3.8-84,1.4-88.3-4.1c-3.3-4.3-70.5,96.8-72.9,91.7
		c-7.3-15.5-8.2-28.7-8.2-48.2c-16.5,5.4-31,6.1-37.6,6.1c-12.7,9.9-36.7,21.1-40.2,37.1c-1.2,15.1,29.7,45.1,32.2,59
		c-0.7,7.1,8.9,81.8-34.7,112.1c-31.1,14-82.5-33.8-87.4-35.9c-4.4,6.5-18.5,35.8-21.1,43.8c56.1,48.3,79.1,93,134.7,104.8
		C1232.7,1043.4,1235.8,985.3,1270.9,898.2z"/>
	<path class="st1" d="M1304.6,659.5c-5-5.6-76.1-81-83.1-89.3c-6.9,3-26.8,27.3-66.8,42.8c-11.6,4.5-21.4,11.4-34.4,14.4
		c0.1,0-49.4,5.2-90.5,1.3c-7.2-0.7-29.5-4.5-31.9-5.7c-6.1-3.1-18.1-9.6-29.1,3c-2,0.5-51-0.1-62.3,0.1
		c-28.8,1.4-45.9,26.6-47.3,29.6c-0.2,7.3-1.2,124-1.1,136.2c20.8-2.6,41,11.3,65.3,25.8c6.3,34.3,44.1,57.9,50.3,60.1
		c2.8,1,48.6,35.3,60.9,47.6c4.9-10.2,17.3-39.3,21.1-43.8c-6.9-5.1-32.5-23.7-35.7-28.4c-1.3-2-26-34.1-10.9-80.9
		c9.2-50.7,58.7-86.1,65.5-88.6c3.2-1.2,21.7-8,28.6-9.7c23.8-5.8,63.3,39.5,91.3,34.7c6.9-1.2,21.6-4.2,28.8-5.7
		c0.1,0.9,0.3,8.6,0.2,9.5c0,3.5,5.9,37.4,8.1,39.8C1241.9,740.5,1298.2,667.2,1304.6,659.5z"/>
	<path class="st2" d="M1671.1,110c-26.4-39.1-48.5-71.7-211.1-54.6c-12.2,1.3-145.2,0-163.1,5.2c-25.5,5.8-121,25.5-182.8,176.5
		c-5,7.3-33.5,283.9-35.8,307.7c15.1-7.9,23.3-12.5,31.7-29.6c6.1-7.3,42.4-19.7,44.1-20.5c15.6-6.9,38.8-4.8,50.9-4.8
		c39,0,58.9,46.6,16.5,80.4c5.4,5.6,80.7,87.7,83.1,89.3c10.3,7.2,76,2.2,88.3,4.1c3.5,0.5,6.7-6.9,11.4-9.1
		c6.5-3,34.9-19.6,41.1-29.2c13.8-21.6,5.7-45.2-10.9-65.1c16.2-14.5,39.8-94,45.1-116.7c1-4.4,11.1-30.7,14.2-35.6
		c13.7-11.8,14.5-33.7,19.3-45.2c1.1-2.7,13-25.8,13.9-26.6c13.4-11.5,19.7-15.9,33.8-26.5c13.1-9.9,25.4-30.9,31.9-42
		c8.7-29.8,46.1-62.5,53.4-67C1671.5,184.6,1710.3,167.9,1671.1,110z"/>
</g>
<g id="pelvis">
	<path class="st3" d="M839.5,875c-1.9,6.7,7.5,19.2,12,21.8c4.5,2.6,15.5,2.2,17.7,0c2.2-2.2,1.7-29.5,0-32.4
		C867.6,861.5,841,869.6,839.5,875z"/>
	<path class="st3" d="M878.2,861.5c0,4.5-3.6,8.1-8.1,8.1h-30.2c-4.5,0-8.1-3.6-8.1-8.1l0,0c0-4.5,3.6-8.1,8.1-8.1h30.2
		C874.6,853.4,878.2,857,878.2,861.5L878.2,861.5z"/>
	<path class="st3" d="M877.9,855.4c0,0-5.2,2-24.5,2c-19.2,0-21.3-2-21.3-2s-1-9-1-24.5s-3-24.2-3-24.2h53.8c0,0-3,7.5-3,24.2
		S877.9,855.4,877.9,855.4z"/>
	<path class="st4" d="M884.1,795.6c-7-3.2-15.3-14.1-23-14.4c-8.9-0.4-18-0.3-26.4,2.8c-8.4,3.1-15.9,9.6-18,18.2
		c6.1,3.7,12.4,7.2,19.1,9.6c13.3,4.7,28.1,5.1,41.5,0.9c4.3-1.3,12.7-6.4,15.9-9.7C892.2,800.4,887.9,797.3,884.1,795.6z"/>
	<path class="st5" d="M661,162.7c10.5-8,15.7-17.8,19.3-24.6s22.4-9.4,29.9-1.9c7.5,7.5,15.2,22.6,19.2,26.6
		c3.9,3.9,3.7,7.1,9.1,12.4c5.4,5.4,6.7,10,8.4,13c1.8,3-32.2,6.8-46.5,2.3s-41.9-12.7-41.9-17.5S661,162.7,661,162.7z"/>
	<path class="st5" d="M1048.3,162.7c-10.5-8-15.7-17.8-19.3-24.6s-22.4-9.4-29.9-1.9c-7.5,7.5-15.2,22.6-19.2,26.6
		c-3.9,3.9-3.7,7.1-9.1,12.4c-5.4,5.4-6.7,10-8.4,13c-1.8,3,32.2,6.8,46.5,2.3c14.3-4.5,41.9-12.7,41.9-17.5
		S1048.3,162.7,1048.3,162.7z"/>
	<g>
		<path class="st6" d="M856.2,562.9c-2.1-36-141.7,56.6-141.7,28.1C696.5,572.9,599,237,599,237c-27.1-51.9-77.4-179.4-231.5-181.5
			c-124.9-1.7-93.3,3.4-180.8-4.4c-56.3-5-106.2,14.4-116.2,22.7C56.1,85.6,41,112.4,27.8,131.2c-3.8,5.4-16.8,37.9,29.4,64.3
			c46.2,26.4,60.8,59.2,62.4,68.6c1.6,9.4,18.2,36,42.2,52.1c24,16.2,31.8,22.4,41.2,58.9s17.2,27.6,28.1,60.1
			c5.8,17.3,26.9,104.9,47,125c-11.5,17.2-46.9,56.8,30.2,94.4c77.4,77.4,66.2,105.8,119.9,139.7c8.3,15.6,9.4,16.7,9.4,21.9
			s-10.9,6.9-10.9,26.6c0,19.3,0.5,26.6,13,50c9.6,17.9,30.9,89,43.3,110.5s39.3,44.3,88.1,16.7c21.2-12,24.3-13,36.5-27.4
			c20.8-24.6,112.1-104.4,129.9-114.4c17.7-10,49.7-32.3,51.6-60.5c18-7,45.6-31.7,67.6-25.2C861.4,784.3,858.3,598.8,856.2,562.9z
			 M474.1,550.9c-43.6-65.5,89.8-81.4,137-30c1.1,0.8,95,105.5,71.3,105.5C639.1,626.5,606.3,665.4,474.1,550.9z M706.6,821.7
			c-2.2,9.5-3.5,30.1-43.9,55.8c-27.3,17.4-60.2,55.5-97.3,36.2c-32-16.7-30.4-78.9-31.1-91.4c-0.5-8.5,1.9-17.9,5.5-26
			c3.8-8.8,4.9-10.7,10.9-19.7c3.4-5,31.2-24.9,6-46.5c-5.8-4.9-11.2-7.8-19.3-12.4c-3.2-1.8-5.1-4.1-10.3-8.9
			c15.5-2.1,37.2-16.8,44.4-22.3c3.9-3,23.4-12.7,39.6-11.9c9.9,0.5,34,11.4,43.2,20.6c14.5,14.5,31.9,31.9,39,48.1
			c10.1,22.8,11.7,30.9,15.1,50.2C709,797.4,708.1,817.7,706.6,821.7z"/>
		<path class="st7" d="M788.8,804.6c1.7,3.7,0.2,13.2,0.2,13.2"/>
		<path class="st7" d="M450.6,808c-6.4,3.9-14.8,11.3-13.8,10.7"/>
		<path class="st7" d="M276.6,581.9c1.5-4.6,5.6-14.5,1.5-21.6"/>
		<path class="st7" d="M112.4,72.6c-5.2,9-12.6,12.6-18.6,18.6c-6,6-12,18.7,3.3,31.9c34.9,30,50,51.3,61.8,65.5
			c11.5,13.9,35.4,61.1,31.6,97.8c-2,19.4-7.9,28.5-38,22.3"/>
		<path class="st7" d="M212.9,307.8c-4.8,7.6-2.2,32.8,9,52.4"/>
		<path d="M132.4,71.8c-0.2-2.1-2.7-2.4-3.8-0.7c-0.2,0.4-0.4,0.7-0.6,1.1c-2.8,1.8-5,6.7-0.6,8c2.2,0.7,4.4-0.7,5.1-2.8
			C132.9,75.5,132.5,73.6,132.4,71.8z"/>
		<path class="st7" d="M474.1,550.9c-24.1-32.7-34-71-28.9-108.9"/>
		<path class="st7" d="M858.7,661.1c-7.6-7.2-12.6-16.2-20.6-23.2c-27-21-62-9-93-12c-2-1-4-2-6-5c-5-5-13-4-19-1c-5,3-10,5-15,6"/>
		<g class="st8">
			<path class="st9" d="M471.5,508.9c-1.9-28.8-13.2-57.5-24.9-69.2c-2.3,42.3,0,72.3,22.3,101.9
				C469.2,540.3,458.5,514.8,471.5,508.9z"/>
		</g>
		<g class="st8">
			<path class="st9" d="M1242.2,539.7c24.4-24.5,25.5-57.7,23.2-100C1249.7,455.4,1234.2,506.9,1242.2,539.7z"/>
		</g>
		<path class="st7" d="M288.6,617.8c-4.8-8.3-10.5-31.3,11.4-38.3s38.1-3.1,42.9-3.1s53.3,21,72.4,46.7c19,25.7,46.2,66.7,74.3,78.6
			c26.5,11.2,46.7,10.5,75.7-11c29-21.4,47.6-16.7,56.2-13.8c8.6,2.9,24.2,6.3,44.8,30c21.9,25.2,28.3,29.4,40.7,78.1
			c4.2,16.5,3.5,43-14.5,67.7c-5.7,7.8-75.3,59.6-90.5,63.8c-17.2,4.7-37.2,9.5-56.7-28.1c-12.9-24.9-11.9-101.4-11.9-111.4
			c0,0,0-8.6,1.9-24.8c1.9-16.2-1.8-36.6-7.3-42.1c-5.5-5.5,7.1,5.9,11.3,8.7c4.3,2.9,39.9,19.3,25.1,40.5
			c-13.8,19.8-15,17.6-21.9,30.5c-6.7,12.6-9,17.7-8.4,28.1"/>
		<path class="st10" d="M489.5,701.6c0,15.8,0.3,82.2-61.3,92.7"/>
		<path class="st7" d="M402.9,610.1c-20.3,12.4-36.8,82.4,40.7,68.9"/>
		<path class="st7" d="M604.6,663.4c9.5,9.5,14,17.2,44.5,17.2s34.4-12.4,41.5-19.5c7.1-7.1,12.5-11.3,20-9.2s29.5,7.9,43-0.5"/>
		<path class="st7" d="M761.6,652.9c5.8,5.8,6,7.5,11,5.8"/>
		<path class="st7" d="M794.6,659.3c6,0,13.5-2.4,10,4.6"/>
		<path class="st11" d="M805.5,669.9c0,6,10.1,104-3.4,117.5"/>
		<g class="st8">
			<path class="st9" d="M300,581.5c21.9-6.9,38.1-3.1,42.9-3.1s35,10.9,60.1,31.7c0,0-15.7-5.4-59.8-5.2c-40.6,0.2-54.6,15-54.6,15
				C283.8,611.5,278.1,588.5,300,581.5"/>
		</g>
		<g class="st8">
			<path class="st9" d="M457.3,679.6c9.3,9.2,6.2,7.2,33.2,23c0,13.9-1.4,39-11.4,49.9C481.1,732.1,457.3,679.6,457.3,679.6z"/>
		</g>
	</g>
	<g>
		<path class="st10" d="M1114.1,237c27.1-51.9,77.4-179.4,231.5-181.5c124.9-1.7,93.3,3.4,180.8-4.4c56.3-5,106.2,14.4,116.2,22.7
			c14.3,11.8,29.5,38.6,42.6,57.4c3.8,5.4,16.8,37.9-29.4,64.3c-46.2,26.4-60.8,59.2-62.4,68.6c-1.6,9.4-18.2,36-42.2,52.1
			c-24,16.2-31.8,22.4-41.2,58.9s-17.2,27.6-28.1,60.1c-5.8,17.3-26.9,104.9-47,125c11.5,17.2,46.9,56.8-30.2,94.4
			c-77.4,77.4-66.2,105.8-119.9,139.7c-8.3,15.6-9.4,16.7-9.4,21.9s10.9,6.9,10.9,26.6c0,19.3-0.5,26.6-13,50
			c-9.6,17.9-30.9,89-43.3,110.5c-12.4,21.5-39.3,44.3-88.1,16.7c-21.2-12-24.3-13-36.5-27.4c-20.8-24.6-112.1-104.4-129.9-114.4
			c-17.7-10-49.7-32.3-51.6-60.5c-18-7-45.6-31.7-67.6-25.2c-4.9-8.3-1.8-193.7,0.3-229.7s5.1-288.9,5.1-317.4
			C879.9,227.5,1114.1,237,1114.1,237z"/>
		<path class="st10" d="M1113.6,236.8c27.1-51.9,77.4-179.4,231.5-181.5c124.9-1.7,93.3,3.4,180.8-4.4c56.3-5,106.2,14.4,116.2,22.7
			c14.3,11.8,29.5,38.6,42.6,57.4c3.8,5.4,16.8,37.9-29.4,64.3s-60.8,59.2-62.4,68.6c-1.6,9.4-18.2,36-42.2,52.1
			c-24,16.2-31.8,22.4-41.2,58.9c-9.4,36.5-17.2,27.6-28.1,60.1c-5.8,17.3-26.9,104.9-47,125c11.5,17.2,46.9,56.8-30.2,94.4
			c-77.4,77.4-66.2,105.8-119.9,139.7c-8.3,15.6-9.4,16.7-9.4,21.9c0,5.2,10.9,6.9,10.9,26.6c0,19.3-0.5,26.6-13,50
			c-9.6,17.9-30.9,89-43.3,110.5s-39.3,44.3-88.1,16.7c-21.2-12-24.3-13-36.5-27.4c-20.8-24.6-112.1-104.4-129.9-114.4
			c-17.7-10-49.7-32.3-51.6-60.5c-18-7-45.6-31.7-67.6-25.2c-4.9-8.3-1.8-193.7,0.3-229.7c2.1-36,5.1-288.9,5.1-317.4
			C879.4,227.3,1113.6,236.8,1113.6,236.8z"/>
		<path class="st7" d="M924.3,804.6c-1.7,3.7-0.2,13.2-0.2,13.2"/>
		<path class="st7" d="M1262.5,808c6.4,3.9,14.8,11.3,13.8,10.7"/>
		<path class="st7" d="M1436.5,581.9c-1.5-4.6-5.6-14.5-1.5-21.6"/>
		<path class="st7" d="M1600.7,72.6c5.2,9,12.6,12.6,18.6,18.6c6,6,12,18.7-3.3,31.9c-34.9,30-50,51.3-61.8,65.5
			c-11.5,13.9-35.4,61.1-31.6,97.8c2,19.4,7.9,28.5,38,22.3"/>
		<path class="st7" d="M1500.2,307.8c4.8,7.6,2.2,32.8-9,52.4"/>
		<path d="M1580.7,71.8c0.2-2.1,2.7-2.4,3.8-0.7c0.2,0.4,0.4,0.7,0.6,1.1c2.8,1.8,5,6.7,0.6,8c-2.2,0.7-4.4-0.7-5.1-2.8
			C1580.1,75.5,1580.5,73.6,1580.7,71.8z"/>
		<path class="st10" d="M854.4,661.1c12.4-12.4,22-35.2,55.8-35.2s54.3,0,58.1,0c3.8,0,8.1-16.2,30-2.9c11.1,6.8,116.7,10.5,133.3,1
			s152.4-52.4,136.2-181.9"/>
		<path class="st10" d="M1030.7,628.2c2.4-10.5,24.7-67,44.3-79.9c19.5-12.9,31-16,35.3-34.2c16.2-5.8,42.3-24.1,69.1-24.1
			c28.1,0,71.3-6.9,63.9,55"/>
		<path class="st10" d="M1424.5,617.8c4.8-8.3,10.5-31.3-11.4-38.3s-38.1-3.1-42.9-3.1s-53.3,21-72.4,46.7
			c-19,25.7-46.2,66.7-74.3,78.6c-26.5,11.2-46.7,10.5-75.7-11s-47.6-16.7-56.2-13.8c-8.6,2.9-24.2,6.3-44.8,30
			c-21.9,25.2-30.1,29.7-40.7,78.8c-4.8,22,0.1,47.4,14,67.4c4.8,6.9,75.8,59.2,91,63.3c17.2,4.7,37.2,9.5,56.7-28.1
			c12.9-24.9,11.9-101.4,11.9-111.4c0,0,0-8.6-1.9-24.8c-1.9-16.2,1.8-36.6,7.3-42.1c5.5-5.5-7.1,5.9-11.3,8.7
			c-4.3,2.9-38.9,18.6-25.1,40.5c13.8,21.9,15.7,17.6,21.9,30.5c6.2,12.9,9.7,19.5,7.8,28.1"/>
		<path class="st10" d="M1223.5,701.6c0,15.8-0.3,82.2,61.3,92.7"/>
		<path class="st7" d="M1310.1,610.1c20.3,12.4,36.8,82.4-40.7,68.9"/>
		<path class="st12" d="M1108.5,663.4c-9.5,9.5-14,17.2-44.5,17.2s-34.4-12.4-41.5-19.5c-7.1-7.1-12.5-11.3-20-9.2s-29.5,7.9-43-0.5
			"/>
		<path class="st7" d="M951.5,652.9c-5.8,5.8-6,7.5-11,5.8"/>
		<path class="st7" d="M918.5,659.3c-6,0-13.5-2.4-10,4.6"/>
		<path class="st11" d="M907.6,669.9c0,6-10.1,104,3.4,117.5"/>
		<g class="st8">
			<path class="st9" d="M1412,581.5c-21.9-6.9-38.1-3.1-42.9-3.1c-4.8,0-35,10.9-60.1,31.7c0,0,15.7-5.4,59.8-5.2
				c40.6,0.2,54.6,15,54.6,15C1428.2,611.5,1433.9,588.5,1412,581.5"/>
		</g>
		<g class="st8">
			<path class="st13" d="M1259.2,679.6c-9.3,9.2-6.2,7.2-33.2,23c0,13.9,1.4,39,11.4,49.9C1235.4,732.1,1259.2,679.6,1259.2,679.6z"
				/>
		</g>
	</g>
	<path id="sacrum" class="st5" d="M1172.9,342.6c-45.8,45.8-61.4,92-58.9,139.8c0,0-1.2,22-4.4,31.7c-0.7,17.3-31.5,27.8-44.2,42.7
		c-7.6,8.9-34,64.4-35.3,69.7c-8.3-1.9-23.6-3.2-28.4-5.9c-4.8-2.7-22.5-8.9-34,5.3c-17.9,0-57-0.9-65-0.9s-46.4,16.8-46.4,39.8
		c0-23-38.4-39.8-46.4-39.8c-8,0-47.1,0.9-65,0.9c-11.5-14.2-29.2-8-34-5.3c-4.8,2.7-20.1,4-28.4,5.9c-1.3-5.4-27.8-60.9-35.3-69.7
		c-12.7-14.9-43.5-25.3-44.2-42.7c-3.2-9.7-4.4-31.7-4.4-31.7c2.5-47.8-13.1-94-58.9-139.8c-20.2-20.2-23.6-40.8-17-73.8
		c6.6-33,68-112.6,73.4-117.9c34.2-34.2,65.2,23.1,96.5,31.3c16.7,4.4,139.4,0,163.7,0c24.4,0,147.1,4.4,163.7,0
		c31.3-8.2,62.3-65.6,96.5-31.3c5.4,5.4,66.8,85,73.4,117.9C1196.5,301.8,1193.1,322.4,1172.9,342.6z M723.1,313.6
		c-2,4.5-8.2,43.9,53.3,34.8C770.1,316.9,745.3,311.8,723.1,313.6z M725.9,446.7c-2,5,15.1,28.8,45.7,20.9
		C768.6,448.7,746.2,445.7,725.9,446.7z M774.7,546.2c-3-10.3-23.3-14.6-42-16.5c-1.3,5,3.9,33.2,41.2,28.4
		C775.5,554.1,775.8,550,774.7,546.2z M936,348.4c61.5,9.1,55.3-30.3,53.3-34.8C967.1,311.8,942.3,316.9,936,348.4z M940.9,467.5
		c30.6,7.9,47.7-15.9,45.7-20.9C966.2,445.7,943.8,448.7,940.9,467.5z M938.6,558.1c37.3,4.8,42.4-23.4,41.2-28.4
		c-18.7,1.9-39,6.2-42,16.5C936.6,550,936.9,554.1,938.6,558.1z"/>
	<path class="st5" d="M718,184c-5.3,5.3-10.7,44.6,33.1,50.7c43.9,6.1,136.3,2.1,152.1,2.1s72.7,4,84.1-13.2s0-39.5-28.3-39.6
		C946.4,183.8,718,184,718,184z"/>
	<g>
		<path class="st7" d="M679.8,322.5c16.7-3.6,83-28.2,95.7,21.5c12.7,49.7-75.3,62.6-79,66.3"/>
		<path class="st7" d="M722.2,313.7c-2,4.5-7.2,43.9,54.3,34.7"/>
	</g>
	<g>
		<path class="st7" d="M696.9,450c10.3-2,69.9-12.7,74.7,17.5c4.8,30.2-46.5,30.2-54,30.2"/>
		<path class="st7" d="M725.9,446.7c-2,5,15.1,28.8,45.7,20.9"/>
	</g>
	<g>
		<path class="st7" d="M705.9,527.6c13.9,0,64.4,1.6,69.1,17.9s-16.7,38.9-63.6,34.6"/>
		<path class="st7" d="M733,529c-1.3,5,3.8,33.9,40.8,29.2"/>
	</g>
	<g>
		<path class="st7" d="M1033.3,322.5c-16.7-3.6-83-28.2-95.7,21.5c-12.7,49.7,75.3,62.6,79,66.3"/>
		<path class="st7" d="M990.9,313.7c2,4.5,7.2,43.9-54.3,34.7"/>
	</g>
	<g>
		<path class="st7" d="M1016.2,450c-10.3-2-69.9-12.7-74.7,17.5c-4.8,30.2,46.5,30.2,54,30.2"/>
		<path class="st7" d="M987.2,446.7c2,5-15.1,28.8-45.7,20.9"/>
	</g>
	<g>
		<path class="st7" d="M1007.2,527.6c-13.9,0-64.4,1.6-69.1,17.9s16.7,38.9,63.6,34.6"/>
		<path class="st7" d="M980.1,529c1.3,5-3.8,33.9-40.8,29.2"/>
	</g>
	<path d="M884.1,795.6c-13.4-3.5-8.8-3.5-19.7-3.5h-18.5c-10.9,0-19.7,11.4-19.7,4.5V645.6c0-14.9,8.8-20.7,19.7-19.7h18.5
		c13.2,0,19.7,8.8,19.7,19.7V795.6z"/>
	<path class="st3" d="M872.1,874.2c0,2.5-2,4.6-4.6,4.6h-25.2c-2.5,0-4.6-2-4.6-4.6l0,0c0-2.5,2-4.6,4.6-4.6h25.2
		C870.1,869.6,872.1,871.7,872.1,874.2L872.1,874.2z"/>
	<g class="st8">
		<path class="st13" d="M776.4,348.4c1.6-4.3,14.2,39.3-65.8,56.8C744.2,389.1,771.6,361.8,776.4,348.4z"/>
	</g>
	<g class="st8">
		<path class="st13" d="M769.9,467.5c1.6-4.3,5.7,35.4-53.4,28.2C753.3,482.9,765.1,480.9,769.9,467.5z"/>
	</g>
	<g class="st8">
		<path class="st13" d="M770.6,558.7c3.9-2.5-4.2,28.7-63.3,21.5C753.3,569.9,759.7,565.9,770.6,558.7z"/>
	</g>
	<g class="st8">
		<path class="st13" d="M935.6,348.4c-1.6-4.3-14.2,39.3,65.8,56.8C967.9,389.1,940.4,361.8,935.6,348.4z"/>
	</g>
	<g class="st8">
		<path class="st13" d="M942.1,467.5c-1.6-4.3-5.7,35.4,53.4,28.2C958.7,482.9,946.9,480.9,942.1,467.5z"/>
	</g>
	<g class="st8">
		<path class="st13" d="M941.4,558.7c-3.9-2.5,4.2,28.7,63.3,21.5C958.7,569.9,952.3,565.9,941.4,558.7z"/>
	</g>
	<g class="st8">
		<path class="st13" d="M719.6,315.8c-10.3,0.2-27.4,4-39.8,7.9c9.3,4.7,12.3,9.4,20.9,6.6c11.1-3.6,8.6-4.2,20.9-4.2
			C719.6,324.1,718.7,324.7,719.6,315.8z"/>
	</g>
	<g class="st8">
		<path class="st13" d="M733.8,527.6c-10.3,0.2-11.5,0.5-26.5,0c0,2-1.7,6.8,3.9,8c11.3,2.4,9.3,2.3,21.6,2.3
			C730.8,535.9,732.9,536.5,733.8,527.6z"/>
	</g>
	<g class="st8">
		<path class="st13" d="M724.8,446.7c-10.3,0.2-17.8,1.2-30.1,5.1c13.2,1.9,4.5,2,16.4,2.4c11.6,0.4,7.2-0.9,21.7,4.7
			C730.8,456.9,723.9,455.6,724.8,446.7z"/>
	</g>
	<g class="st8">
		<path class="st13" d="M992.4,315.8c10.3,0.2,27.4,4,39.8,7.9c-9.3,4.7-12.3,9.4-20.9,6.6c-11.1-3.6-8.6-4.2-20.9-4.2
			C992.4,324.1,993.3,324.7,992.4,315.8z"/>
	</g>
	<g class="st8">
		<path class="st13" d="M978.2,527.6c10.3,0.2,11.5,0.5,26.5,0c0,2,1.7,6.8-3.9,8c-11.3,2.4-9.3,2.3-21.6,2.3
			C981.2,535.9,979.1,536.5,978.2,527.6z"/>
	</g>
	<g class="st8">
		<path class="st13" d="M987.2,446.7c10.3,0.2,17.8,1.2,30.1,5.1c-13.2,1.9-4.5,2-16.4,2.4c-11.6,0.4-7.2-0.9-21.7,4.7
			C981.3,456.9,988.1,455.6,987.2,446.7z"/>
	</g>
</g>
<g id="text">
	<text transform="matrix(1 0 0 1 1336 243)" class="st14 st15">2</text>
	<text transform="matrix(1 0 0 1 583 834)" class="st14 st15">7</text>
	<text transform="matrix(1 0 0 1 394 752)" class="st14 st15">6</text>
	<text transform="matrix(1 0 0 1 1174 970)" class="st14 st15">3</text>
	<text transform="matrix(1 0 0 1 944 748)" class="st14 st15">4</text>
	<text transform="matrix(1 0 0 1 833 415)" class="st14 st15">1</text>
	<text transform="matrix(1 0 0 1 838 729)" class="st16 st14 st17">5</text>
	<text transform="matrix(1 0 0 1 842 853)" class="st14 st18">8</text>
	<text transform="matrix(1 0 0 1 908 730)" class="st14 st18">a</text>
	<text transform="matrix(1 0 0 1 924 639)" class="st14 st18">d</text>
	<text transform="matrix(1 0 0 1 1118 665)" class="st14 st18">b</text>
	<text transform="matrix(1 0 0 1 973 864)" class="st14 st18">c</text>
	<g>
		<g>
			<g>
				<g>
					<path class="st19" d="M828.2,618.2c1.1,5.1-2.1,10.2-7.3,11.3c-5.2,1.1-10.2-2.2-11.3-7.4c-1-5.1,2.2-10.1,7.3-11.2
						C822.1,609.8,827.1,613,828.2,618.2z"/>
				</g>
				<g>
					<path class="st19" d="M805.8,622.9c1,5.1-2.3,10.2-7.6,11.2c-5.2,1-10.2-2.4-11.1-7.6c-0.9-5.2,2.5-10.1,7.6-11.1
						C799.8,614.4,804.8,617.7,805.8,622.9z"/>
				</g>
				<g>
					<path class="st19" d="M783.4,627.1c0.9,5.2-2.6,10.1-7.8,11c-5.3,0.9-10.1-2.7-10.9-7.9c-0.8-5.2,2.7-10,7.9-10.9
						C777.6,618.5,782.5,621.9,783.4,627.1z"/>
				</g>
				<g>
					<path class="st19" d="M760.8,630.7c0.8,5.2-2.9,10-8.1,10.7c-5.3,0.7-10.1-3-10.7-8.2c-0.6-5.2,3-9.9,8.2-10.6
						C755.2,621.9,760,625.5,760.8,630.7z"/>
				</g>
				<g>
					<path class="st19" d="M738.1,633.7c0.6,5.2-3.2,9.9-8.5,10.5c-5.3,0.5-10-3.3-10.4-8.5c-0.5-5.2,3.3-9.8,8.5-10.4
						C732.8,624.8,737.5,628.5,738.1,633.7z"/>
				</g>
				<g>
					<path class="st19" d="M715.3,636c0.5,5.2-3.5,9.8-8.8,10.2c-5.3,0.4-9.9-3.6-10.2-8.9c-0.3-5.2,3.7-9.7,8.8-10.1
						C710.3,626.9,714.9,630.8,715.3,636z"/>
				</g>
				<g>
					<path class="st19" d="M692.5,637.5c0.3,5.2-3.8,9.7-9.2,9.9c-5.3,0.2-9.7-4-9.8-9.3c-0.1-5.2,4-9.6,9.2-9.7
						C687.9,628.2,692.2,632.3,692.5,637.5z"/>
				</g>
				<g>
					<path class="st19" d="M669.7,638.2c0.1,5.2-4.2,9.5-9.6,9.5c-5.4,0-9.6-4.4-9.4-9.7c0.2-5.2,4.5-9.4,9.6-9.3
						C665.4,628.7,669.6,632.9,669.7,638.2z"/>
				</g>
				<g>
					<path class="st19" d="M646.8,637.9c-0.2,5.2-4.7,9.3-10,9c-5.4-0.3-9.4-4.9-8.9-10.1c0.4-5.2,4.9-9.1,10-8.8
						C642.9,628.2,647,632.6,646.8,637.9z"/>
				</g>
				<g>
					<path class="st19" d="M624,636.5c-0.4,5.2-5.2,9.1-10.5,8.5c-2.7-0.3-5-1.6-6.5-3.6c-1.5-1.9-2.2-4.4-1.9-7
						c0.4-2.6,1.7-4.8,3.6-6.3c1.9-1.5,4.3-2.3,6.9-2C620.6,626.6,624.4,631.2,624,636.5z"/>
				</g>
				<g>
					<path class="st19" d="M601.2,633.8c-0.7,5.2-5.7,8.7-11,7.8c-2.7-0.5-4.9-2-6.3-4c-1.4-2-1.9-4.6-1.4-7.2c0.5-2.6,2.1-4.7,4-6
						c2-1.4,4.5-2,7-1.5C598.5,623.8,602,628.6,601.2,633.8z"/>
				</g>
				<g>
					<path class="st19" d="M578.7,629.7c-0.6,2.6-2.1,4.6-4.2,5.9c-2.1,1.3-4.8,1.8-7.4,1.1c-2.6-0.7-4.7-2.3-6-4.5
						c-1.2-2.2-1.6-4.7-0.8-7.3c0.7-2.5,2.4-4.5,4.5-5.7c2.1-1.2,4.6-1.7,7-1c2.4,0.7,4.4,2.2,5.7,4.2
						C578.8,624.5,579.3,627.1,578.7,629.7z"/>
				</g>
				<g>
					<path class="st19" d="M556.6,623.8c-0.8,2.5-2.5,4.4-4.7,5.5c-2.2,1.1-4.9,1.4-7.5,0.4c-2.6-1-4.5-2.7-5.6-5
						c-1-2.3-1.1-4.9-0.2-7.3c1-2.4,2.8-4.2,5-5.2c2.2-1,4.7-1.2,7-0.4c2.3,0.9,4.2,2.5,5.3,4.7
						C557.1,618.7,557.4,621.3,556.6,623.8z"/>
				</g>
				<g>
					<path class="st19" d="M535.2,615.9c-1,2.4-2.9,4.2-5.3,5c-2.3,0.9-5,0.9-7.5-0.4c-2.5-1.2-4.3-3.2-5-5.6
						c-0.8-2.4-0.6-5,0.7-7.3c1.3-2.3,3.3-3.9,5.6-4.6c2.2-0.7,4.8-0.7,7,0.4c2.2,1.1,3.9,3,4.7,5.2
						C536.2,610.9,536.2,613.5,535.2,615.9z"/>
				</g>
				<g>
					<path class="st19" d="M514.7,605.8c-1.3,2.3-3.4,3.8-5.8,4.4c-1.2,0.3-2.5,0.3-3.8,0.2c-1.3-0.2-2.5-0.7-3.7-1.5
						c-1.2-0.8-2.1-1.7-2.9-2.7c-0.7-1.1-1.2-2.3-1.4-3.5c-0.5-2.4,0-5,1.6-7.1s3.8-3.4,6.1-3.9c1.2-0.2,2.4-0.2,3.5,0
						c1.2,0.2,2.3,0.6,3.4,1.3c1,0.7,1.9,1.5,2.6,2.5c0.7,1,1.2,2,1.4,3.2C516.2,600.9,516,603.5,514.7,605.8z"/>
				</g>
				<g>
					<path class="st19" d="M495.6,593.2c-1.6,2.1-3.9,3.3-6.4,3.6c-2.5,0.3-5.1-0.6-7.2-2.4c-2.2-1.8-3.2-4.3-3.4-6.8
						c-0.1-2.5,0.7-4.9,2.6-6.8c1.8-1.9,4.3-2.9,6.6-3c2.4-0.1,4.7,0.6,6.6,2.2c1.9,1.6,2.9,3.9,3.1,6.2
						C497.8,588.6,497.2,591.1,495.6,593.2z"/>
				</g>
				<g>
					<path class="st19" d="M478.5,578.1c-1.9,1.8-4.3,2.7-6.8,2.6c-2.5-0.1-4.9-1.3-6.8-3.4c-0.9-1-1.6-2.3-1.9-3.5
						c-0.4-1.2-0.5-2.5-0.4-3.8c0.2-2.5,1.5-4.7,3.6-6.3c2.1-1.6,4.6-2.1,7-1.9c1.2,0.1,2.3,0.4,3.4,1c1,0.5,2,1.3,2.8,2.2
						c1.6,1.8,2.3,4.2,2.2,6.6C481.3,573.8,480.4,576.3,478.5,578.1z"/>
				</g>
				<g>
					<path class="st19" d="M463.9,560.5c-2.1,1.5-4.7,2-7.2,1.5c-2.4-0.5-4.7-2.1-6.2-4.4c-1.5-2.4-1.8-5.1-1.2-7.5
						c0.6-2.4,2.2-4.5,4.5-5.7c2.3-1.2,4.9-1.4,7.2-0.8c2.3,0.6,4.3,2,5.6,4.1c1.3,2.1,1.6,4.5,1.1,6.9
						C467.3,556.8,466,559,463.9,560.5z"/>
				</g>
				<g>
					<path class="st19" d="M452.1,540.9c-2.3,1.2-5,1.3-7.3,0.4c-2.3-0.9-4.3-2.7-5.4-5.3c-0.3-0.6-0.5-1.3-0.6-1.9
						c-0.1-0.7-0.2-1.3-0.2-2c0-1.3,0.3-2.6,0.7-3.7c1-2.3,2.8-4.1,5.3-5c2.5-0.9,5.1-0.7,7.3,0.2c1.1,0.5,2.1,1.1,2.9,1.9
						c0.4,0.4,0.8,0.9,1.1,1.4c0.3,0.5,0.7,1,0.9,1.6c1,2.2,0.9,4.7,0.1,7C456.1,537.7,454.5,539.8,452.1,540.9z"/>
				</g>
				<g>
					<path class="st19" d="M443.4,519.8c-2.5,0.8-5.1,0.5-7.3-0.7c-2.2-1.2-3.8-3.4-4.6-6.1c-0.2-0.7-0.3-1.3-0.3-2
						c0-0.7,0-1.3,0.1-2c0.2-1.3,0.7-2.5,1.3-3.6c1.3-2.1,3.4-3.6,6-4.1c2.6-0.5,5.1,0.1,7.2,1.3c1,0.6,1.9,1.4,2.6,2.3
						c0.3,0.5,0.7,1,0.9,1.5c0.3,0.5,0.5,1.1,0.7,1.7c0.7,2.4,0.2,4.8-0.9,6.9C447.8,517.3,445.8,519,443.4,519.8z"/>
				</g>
				<g>
					<path class="st19" d="M437.9,497.6c-2.6,0.4-5.1-0.2-7.1-1.8c-2-1.5-3.3-3.9-3.6-6.7c-0.3-2.8,0.7-5.4,2.3-7.3
						c1.6-1.9,4-3,6.6-3.1c2.6-0.1,5,0.9,6.8,2.4c1.8,1.6,3,3.7,3.2,6.1c0.3,2.4-0.6,4.8-2,6.6C442.6,495.8,440.5,497.2,437.9,497.6
						z"/>
				</g>
				<g>
					<path class="st19" d="M436,474.9c-2.6,0-5-1.1-6.7-2.9c-1.7-1.8-2.6-4.4-2.5-7.2c0.2-2.8,1.5-5.2,3.4-6.8c1.9-1.6,4.4-2.4,7-2
						c2.6,0.3,4.8,1.7,6.3,3.5c1.6,1.8,2.4,4.1,2.2,6.6c-0.1,2.4-1.2,4.6-3,6.2C440.9,473.8,438.6,474.9,436,474.9z"/>
				</g>
				<g>
					<path class="st19" d="M437.7,452.1c-2.6-0.4-4.8-1.8-6.2-3.9c-1.3-2-2-4.8-1.4-7.5c0.6-2.7,2.2-4.9,4.3-6.2
						c2.2-1.3,4.7-1.7,7.3-1s4.5,2.4,5.7,4.4c1.3,2,1.8,4.5,1.2,6.9c-0.5,2.4-1.9,4.4-3.9,5.7C442.7,451.8,440.3,452.5,437.7,452.1z
						"/>
				</g>
				<g>
					<path class="st19" d="M442.8,429.8c-2.5-0.8-4.5-2.5-5.5-4.7c-0.5-1.1-0.9-2.4-0.9-3.6c-0.1-1.3,0.1-2.6,0.6-3.9
						c1-2.6,2.8-4.6,5.1-5.5c2.3-1,4.9-1,7.3,0c2.4,1,4.2,2.9,5.1,5.1c0.9,2.2,1.2,4.7,0.3,7c-0.5,1.2-1.1,2.2-1.9,3.1
						c-0.8,0.9-1.8,1.6-2.8,2.1C447.9,430.3,445.3,430.6,442.8,429.8z"/>
				</g>
				<g>
					<path class="st19" d="M450.9,408.5c-2.4-1.1-4.1-3-4.9-5.4c-0.4-1.2-0.6-2.4-0.5-3.7c0.1-1.3,0.4-2.6,1.1-3.8
						c1.3-2.4,3.4-4.1,5.8-4.8c2.4-0.7,5-0.4,7.3,0.9c2.3,1.3,3.8,3.4,4.5,5.7c0.7,2.3,0.6,4.8-0.6,7c-0.6,1.1-1.4,2-2.3,2.8
						c-0.9,0.8-2,1.3-3.1,1.7C455.9,409.6,453.3,409.5,450.9,408.5z"/>
				</g>
				<g>
					<path class="st19" d="M461.6,388.2c-2.3-1.4-3.7-3.5-4.2-5.9c-0.5-2.4-0.1-5.1,1.4-7.4c1.5-2.3,3.8-3.7,6.2-4.2
						c2.4-0.4,5,0.1,7.1,1.6c2.1,1.5,3.4,3.8,3.8,6.1c0.5,2.4,0.1,4.8-1.4,6.9c-1.4,2.1-3.5,3.4-5.8,3.9
						C466.4,389.9,463.8,389.6,461.6,388.2z"/>
				</g>
				<g>
					<path class="st19" d="M474.4,369.3c-2.1-1.6-3.4-3.9-3.6-6.3c-0.3-2.4,0.4-5,2.1-7.2c3.5-4.2,9.6-4.8,13.5-1.2
						c3.9,3.5,4.4,9.4,1.2,13.3c-1.6,2-3.8,3.1-6.2,3.4C479,371.5,476.5,370.9,474.4,369.3z"/>
				</g>
				<g>
					<path class="st19" d="M489,351.7c-1.9-1.8-3-4.1-3.1-6.6c-0.1-2.5,0.9-5,2.7-6.9c1.9-2,4.4-2.9,6.8-2.9c2.5,0,4.9,1,6.7,2.8
						c1.8,1.9,2.7,4.3,2.7,6.7c0,2.4-0.9,4.7-2.6,6.6c-1.7,1.8-4.1,2.7-6.5,2.8C493.4,354.3,490.9,353.5,489,351.7z"/>
				</g>
				<g>
					<path class="st19" d="M505,335.4c-1.8-1.9-2.6-4.4-2.5-6.8c0.1-2.4,1.2-4.9,3.3-6.7c2-1.8,4.6-2.6,7-2.4
						c2.5,0.2,4.8,1.3,6.5,3.4c1.7,2,2.4,4.5,2.2,6.9c-0.2,2.4-1.2,4.7-3.1,6.4c-1.9,1.6-4.3,2.5-6.7,2.3
						C509.2,338.3,506.8,337.3,505,335.4z"/>
				</g>
				<g>
					<path class="st19" d="M522.3,320.4c-1.6-2-2.3-4.6-2-7c0.3-2.4,1.6-4.8,3.7-6.4c4.3-3.3,10.4-2.4,13.4,1.9
						c3.1,4.3,2.2,10.1-1.9,13.2c-2,1.6-4.5,2.1-6.9,1.8C526.2,323.6,523.9,322.4,522.3,320.4z"/>
				</g>
				<g>
					<path class="st19" d="M540.5,306.6c-1.5-2.1-2-4.7-1.5-7.1c0.5-2.4,1.9-4.7,4.1-6.2c2.3-1.5,4.9-1.9,7.3-1.4
						c2.4,0.5,4.6,2,6,4.2c1.4,2.2,1.8,4.8,1.3,7.1c-0.5,2.4-1.8,4.5-4,5.9c-2.2,1.4-4.6,1.9-7,1.4
						C544.3,310.1,542,308.7,540.5,306.6z"/>
				</g>
				<g>
					<path class="st19" d="M559.6,294c-1.4-2.2-1.7-4.8-1.1-7.2c0.6-2.4,2.2-4.5,4.5-5.9c2.3-1.4,5-1.6,7.3-1
						c2.4,0.7,4.5,2.2,5.7,4.5s1.5,4.9,0.8,7.2c-0.6,2.3-2.1,4.4-4.3,5.7c-2.2,1.3-4.8,1.5-7.1,0.9C563.2,297.7,561,296.3,559.6,294
						z"/>
				</g>
				<g>
					<path class="st19" d="M579.5,282.6c-2.5-4.6-0.7-10.4,4.1-12.9c4.8-2.4,10.6-0.5,12.8,4.3c2.3,4.7,0.4,10.4-4.2,12.7
						C587.7,289,582,287.2,579.5,282.6z"/>
				</g>
				<g>
					<path class="st19" d="M599.9,272.4c-1.1-2.4-1.2-5-0.3-7.3c0.9-2.3,2.6-4.3,5.1-5.4c2.5-1.1,5.1-1.1,7.4-0.2
						c2.3,0.9,4.2,2.7,5.2,5.1c1,2.4,0.9,5,0,7.3c-0.9,2.3-2.6,4.2-4.9,5.2c-2.4,1-4.9,1-7.2,0.2C603,276.4,601,274.7,599.9,272.4z"
						/>
				</g>
				<g>
					<path class="st19" d="M620.9,263.2c-2-4.8,0.4-10.5,5.5-12.4c5-2,10.6,0.6,12.3,5.6c1.8,5-0.8,10.3-5.5,12.2
						C628.3,270.4,622.9,268.1,620.9,263.2z"/>
				</g>
				<g>
					<path class="st19" d="M642.3,255.1c-0.9-2.5-0.6-5.1,0.5-7.3c1.1-2.2,3.1-3.9,5.6-4.8c2.5-0.9,5.2-0.6,7.4,0.6
						c2.2,1.1,3.9,3.1,4.7,5.6c0.8,2.5,0.4,5.1-0.7,7.2c-1.1,2.1-3,3.8-5.5,4.7c-2.4,0.8-5,0.5-7.2-0.6
						C644.9,259.5,643.1,257.6,642.3,255.1z"/>
				</g>
				<g>
					<path class="st19" d="M664,248.1c-1.5-5.1,1.5-10.3,6.6-11.8c5.2-1.4,10.4,1.7,11.7,6.8c1.3,5.1-1.7,10.2-6.7,11.6
						C670.7,256.1,665.5,253.1,664,248.1z"/>
				</g>
				<g>
					<path class="st19" d="M686.1,242.2c-1.3-5.1,2-10.2,7.2-11.4c5.2-1.1,10.3,2.2,11.4,7.3c1,5.2-2.2,10.2-7.2,11.2
						C692.5,250.5,687.4,247.3,686.1,242.2z"/>
				</g>
				<g>
					<path class="st19" d="M708.5,237.3c-1-5.1,2.4-10.1,7.7-11.1c5.3-0.9,10.2,2.6,11,7.8c0.8,5.2-2.7,10.1-7.7,10.9
						C714.4,245.8,709.5,242.4,708.5,237.3z"/>
				</g>
				<g>
					<path class="st19" d="M731,233.4c-0.8-5.2,2.9-10,8.2-10.7c5.3-0.6,10.1,3.1,10.7,8.3s-3.1,9.9-8.2,10.5
						C736.6,242.2,731.8,238.6,731,233.4z"/>
				</g>
				<g>
					<path class="st19" d="M753.7,230.6c-0.6-5.2,3.3-9.9,8.7-10.4c5.4-0.4,9.9,3.5,10.3,8.8c0.3,5.2-3.6,9.8-8.7,10.2
						C758.8,239.6,754.3,235.8,753.7,230.6z"/>
				</g>
				<g>
					<path class="st19" d="M776.5,228.8c-0.3-5.2,3.8-9.7,9.1-10c5.4-0.2,9.8,4,9.9,9.2c0.1,5.2-4,9.6-9.1,9.8
						C781.2,238,776.8,234,776.5,228.8z"/>
				</g>
				<g>
					<path class="st19" d="M799.4,228c-0.1-5.2,4.2-9.5,9.6-9.6c5.4,0.1,9.6,4.4,9.5,9.7c-0.1,5.2-4.4,9.4-9.6,9.3
						C803.7,237.4,799.4,233.2,799.4,228z"/>
				</g>
				<g>
					<path class="st19" d="M822.2,228.1c0.1-5.2,4.6-9.3,10-9.1c5.4,0.3,9.4,4.8,9,10.1c-0.4,5.2-4.8,9.2-10,8.9
						C826.1,237.8,822.1,233.4,822.2,228.1z"/>
				</g>
			</g>
		</g>
	</g>
</g>
</svg>
